<?xml version="1.0" encoding="UTF-8" standalone="no"?>
<svg width="32px" height="32px" viewBox="0 0 32 32" version="1.1" xmlns="http://www.w3.org/2000/svg" xmlns:xlink="http://www.w3.org/1999/xlink" xmlns:sketch="http://www.bohemiancoding.com/sketch/ns">
    <!-- Generator: Sketch 3.2.2 (9983) - http://www.bohemiancoding.com/sketch -->
    <title>pause</title>
    <desc>Created with Sketch.</desc>
    <defs></defs>
    <g id="Page-1" stroke="none" stroke-width="1" fill="none" fill-rule="evenodd" sketch:type="MSPage">
        <g id="pause" sketch:type="MSArtboardGroup" fill="#AAAAAA" opacity="1">
            <path d="M6.86956522,1.39130435 C6.11317523,1.39130435 5.5,2.00155109 5.5,2.7613315 L5.5,29.2386685 C5.5,29.9953136 6.10790182,30.6086957 6.86956522,30.6086957 C7.6259552,30.6086957 8.23913043,29.9984489 8.23913043,29.2386685 L8.23913043,2.7613315 C8.23913043,2.0046864 7.63122861,1.39130435 6.86956522,1.39130435 Z M25.1304348,1.39130435 C24.3740448,1.39130435 23.7608696,2.00155109 23.7608696,2.7613315 L23.7608696,29.2386685 C23.7608696,29.9953136 24.3687714,30.6086957 25.1304348,30.6086957 C25.8868248,30.6086957 26.5,29.9984489 26.5,29.2386685 L26.5,2.7613315 C26.5,2.0046864 25.8920982,1.39130435 25.1304348,1.39130435 Z" id="Rectangle-26" sketch:type="MSShapeGroup"></path>
        </g>
    </g>
</svg>
