<?xml version="1.0" encoding="UTF-8" standalone="no"?>
<svg width="32px" height="32px" viewBox="0 0 32 32" version="1.1" xmlns="http://www.w3.org/2000/svg" xmlns:xlink="http://www.w3.org/1999/xlink" xmlns:sketch="http://www.bohemiancoding.com/sketch/ns">
    <!-- Generator: Sketch 3.2.2 (9983) - http://www.bohemiancoding.com/sketch -->
    <title>previous</title>
    <desc>Created with Sketch.</desc>
    <defs></defs>
    <g id="Page-1" stroke="none" stroke-width="1" fill="none" fill-rule="evenodd" sketch:type="MSPage">
        <g id="previous" sketch:type="MSArtboardGroup" fill="#AAAAAA" opacity="1">
            <path d="M5.98599967,2.04227728 C4.1988064,0.739115526 2.75,1.47075779 2.75,3.68479443 L2.75,27.6633526 C2.75,29.8736515 4.18895643,30.6162138 5.98599967,29.3058697 L21.4450348,18.0336566 C23.2322281,16.7304948 23.2420781,14.6248344 21.4450348,13.3144904 L5.98599967,2.04227728 Z M27.8793103,1.5102804 C27.1222994,1.5102804 26.5086207,2.12102816 26.5086207,2.88143236 L26.5086207,29.3805077 C26.5086207,30.1377741 27.1170216,30.7516597 27.8793103,30.7516597 C28.6363213,30.7516597 29.25,30.1409119 29.25,29.3805077 L29.25,2.88143236 C29.25,2.12416604 28.6415991,1.5102804 27.8793103,1.5102804 Z" id="Rectangle-16" sketch:type="MSShapeGroup" transform="translate(16.000000, 16.000000) scale(-1, 1) translate(-16.000000, -16.000000) "></path>
        </g>
    </g>
</svg>
